<svg xmlns="http://www.w3.org/2000/svg" xmlns:xlink="http://www.w3.org/1999/xlink" width="500" zoomAndPan="magnify" viewBox="0 0 375 225" height="300" preserveAspectRatio="xMidYMid meet" version="1.0"><defs><g/><clipPath id="f2d05cfb8c"><path d="M 0 40.117188 L 375 40.117188 L 375 184.882812 L 0 184.882812 Z M 0 40.117188 " clip-rule="nonzero"/></clipPath><clipPath id="0b34ef0492"><path d="M 0 40.117188 L 375 40.117188 L 375 184.875 L 0 184.875 Z M 0 40.117188 " clip-rule="nonzero"/></clipPath></defs><rect x="-37.5" width="450" fill="#ffffff" y="-22.5" height="270" fill-opacity="1"/><rect x="-37.5" width="450" fill="#ffffff" y="-22.5" height="270" fill-opacity="1"/><g clip-path="url(#f2d05cfb8c)"><path fill="#f5f5f5" d="M -35.089844 40.117188 L 389.035156 40.117188 L 389.035156 184.882812 L -35.089844 184.882812 Z M -35.089844 40.117188 " fill-opacity="1" fill-rule="nonzero"/></g><g clip-path="url(#0b34ef0492)"><path stroke-linecap="butt" transform="matrix(1.769052, 0, 0, 1.769052, -35.087405, 40.115403)" fill="none" stroke-linejoin="miter" d="M 0.000829279 0.00100898 L 239.683842 0.00100898 L 239.683842 81.828909 L 0.000829279 81.828909 Z M 0.000829279 0.00100898 " stroke="#ffffff" stroke-width="0.847912" stroke-opacity="1" stroke-miterlimit="4"/></g><g fill="#5465ff" fill-opacity="1"><g transform="translate(-1.402316, 140.801384)"><g><path d="M 62.546875 -45.953125 C 60.734375 -53.453125 56.140625 -57.203125 48.765625 -57.203125 C 44.890625 -57.203125 41.25 -55.9375 37.84375 -53.40625 C 34.4375 -50.875 31.734375 -47.53125 29.734375 -43.375 C 27.734375 -39.21875 26.734375 -34.984375 26.734375 -30.671875 C 26.734375 -25.285156 28.140625 -20.953125 30.953125 -17.671875 C 33.765625 -14.390625 37.546875 -12.75 42.296875 -12.75 C 46.609375 -12.75 50.234375 -13.84375 53.171875 -16.03125 C 56.109375 -18.21875 58.046875 -21.222656 58.984375 -25.046875 L 43.984375 -25.046875 L 46.328125 -39.484375 L 82.8125 -39.484375 C 81.1875 -29.609375 78.445312 -21.804688 74.59375 -16.078125 C 70.75 -10.359375 65.875 -5.859375 59.96875 -2.578125 C 54.0625 0.703125 47.328125 2.34375 39.765625 2.34375 C 30.015625 2.34375 22.179688 -0.40625 16.265625 -5.90625 C 10.359375 -11.40625 7.40625 -18.753906 7.40625 -27.953125 C 7.40625 -36.015625 9.3125 -43.515625 13.125 -50.453125 C 16.9375 -57.390625 22.28125 -62.890625 29.15625 -66.953125 C 36.039062 -71.023438 43.765625 -73.0625 52.328125 -73.0625 C 67.273438 -73.0625 76.875 -66.460938 81.125 -53.265625 Z M 62.546875 -45.953125 "/></g></g></g><g fill="#5465ff" fill-opacity="1"><g transform="translate(67.602415, 140.801384)"><g><path d="M 35.171875 -70.71875 L 29.359375 -33.390625 C 28.796875 -30.015625 28.515625 -27.265625 28.515625 -25.140625 C 28.515625 -21.566406 29.28125 -18.859375 30.8125 -17.015625 C 32.34375 -15.171875 34.984375 -14.25 38.734375 -14.25 C 43.296875 -14.25 46.78125 -15.734375 49.1875 -18.703125 C 51.59375 -21.671875 53.265625 -26.347656 54.203125 -32.734375 L 60.109375 -70.71875 L 78.5 -70.71875 L 72.125 -30.015625 C 70.863281 -21.753906 68.703125 -15.46875 65.640625 -11.15625 C 62.578125 -6.84375 58.5 -3.59375 53.40625 -1.40625 C 48.3125 0.78125 42.578125 1.875 36.203125 1.875 C 27.566406 1.875 20.9375 0.015625 16.3125 -3.703125 C 11.6875 -7.421875 9.375 -12.84375 9.375 -19.96875 C 9.375 -21.28125 9.4375 -22.71875 9.5625 -24.28125 C 9.6875 -25.851562 12.09375 -41.332031 16.78125 -70.71875 Z M 35.171875 -70.71875 "/></g></g></g><g fill="#5465ff" fill-opacity="1"><g transform="translate(130.606527, 140.801384)"><g><path d="M 43.796875 -70.71875 C 49.484375 -70.71875 53.921875 -69.570312 57.109375 -67.28125 C 60.296875 -65 61.890625 -61.546875 61.890625 -56.921875 C 61.890625 -47.609375 58.421875 -41.265625 51.484375 -37.890625 L 51.484375 -37.703125 C 59.421875 -36.640625 63.390625 -32.109375 63.390625 -24.109375 C 63.390625 -16.535156 60.8125 -10.625 55.65625 -6.375 C 50.5 -2.125 43.546875 0 34.796875 0 L 6 0 L 17.15625 -70.71875 Z M 33.390625 -56.640625 L 31.234375 -42.953125 L 33.671875 -42.953125 C 40.796875 -42.953125 44.359375 -45.734375 44.359375 -51.296875 C 44.359375 -53.109375 43.671875 -54.453125 42.296875 -55.328125 C 40.921875 -56.203125 38.578125 -56.640625 35.265625 -56.640625 Z M 26.640625 -14.0625 L 30.765625 -14.0625 C 35.953125 -14.0625 39.609375 -14.84375 41.734375 -16.40625 C 43.859375 -17.96875 44.921875 -20.15625 44.921875 -22.96875 C 44.921875 -25.226562 44.109375 -26.84375 42.484375 -27.8125 C 40.859375 -28.78125 38.078125 -29.265625 34.140625 -29.265625 L 28.984375 -29.265625 Z M 26.640625 -14.0625 "/></g></g></g><path stroke-linecap="butt" transform="matrix(1.769052, 0, 0, 1.769052, 184.177111, 49.402983)" fill="none" stroke-linejoin="miter" d="M 32.445124 13.036283 L 31.060643 21.835576 L 18.712927 21.835576 L 17.653037 28.512881 L 29.364819 28.512881 L 27.993587 37.314383 L 16.268556 37.314383 L 15.155672 44.19925 L 27.514428 44.19925 L 26.129947 53.000751 L 3.390896 53.000751 L 9.706072 13.036283 Z M 47.862104 13.036283 L 52.636024 34.388645 L 64.555367 13.036283 L 74.895917 13.036283 L 74.637569 53.000751 L 64.246233 53.000751 L 64.98374 29.990103 L 64.879959 29.990103 L 51.62692 53.000751 L 47.486726 53.000751 L 41.973091 29.990103 L 41.86931 29.990103 L 34.880662 53.000751 L 24.540113 53.000751 L 37.636376 13.036283 Z M 93.435155 11.974185 C 97.71446 11.974185 101.726585 13.069404 105.471528 15.262051 L 100.061674 23.310589 C 98.189203 21.541898 96.036301 20.658657 93.602971 20.658657 C 92.326687 20.658657 91.165225 21.020786 90.123 21.745044 C 89.087399 22.469302 88.568495 23.363584 88.568495 24.423473 C 88.568495 25.200726 88.939456 25.88303 89.681379 26.468177 C 90.423302 27.055533 91.783494 27.62964 93.757538 28.190498 C 96.442593 29.000872 98.383516 29.786957 99.582516 30.546545 C 100.790349 31.306132 101.726585 32.24016 102.391224 33.355253 C 103.064695 34.468137 103.400327 35.857034 103.400327 37.521944 C 103.400327 39.919945 102.784266 42.465888 101.549936 45.157567 C 100.315606 47.840413 98.292983 49.980065 95.479859 51.576524 C 92.666735 53.164151 89.336915 53.99219 85.48819 54.060641 C 80.544246 54.060641 76.092709 52.543674 72.133579 49.505323 L 77.905562 41.118945 C 80.665692 43.881283 83.511937 45.261348 86.446507 45.261348 C 88.069463 45.261348 89.43628 44.837392 90.549164 43.991688 C 91.662048 43.13936 92.21849 42.059597 92.21849 40.756816 C 92.21849 39.056576 90.522667 37.749379 87.133227 36.835224 C 83.034987 35.704675 80.380846 34.496842 79.173014 33.211726 C 77.974013 31.917777 77.373409 30.19104 77.373409 28.035931 C 77.373409 23.513735 78.919082 19.709172 82.008219 16.620035 C 85.10398 13.522065 88.912959 11.974185 93.435155 11.974185 Z M 93.435155 11.974185 " stroke="#f5f5f5" stroke-width="5.367546" stroke-opacity="1" stroke-miterlimit="4"/><g fill="#000000" fill-opacity="1"><g transform="translate(184.177111, 143.162734)"><g><path d="M 57.390625 -70.71875 L 54.953125 -55.140625 L 33.109375 -55.140625 L 31.234375 -43.328125 L 51.953125 -43.328125 L 49.515625 -27.765625 L 28.796875 -27.765625 L 26.828125 -15.5625 L 48.671875 -15.5625 L 46.234375 0 L 6 0 L 17.15625 -70.71875 Z M 57.390625 -70.71875 "/></g></g></g><g fill="#000000" fill-opacity="1"><g transform="translate(225.804002, 143.162734)"><g><path d="M 43.046875 -70.71875 L 51.484375 -32.921875 L 72.59375 -70.71875 L 90.875 -70.71875 L 90.40625 0 L 72.03125 0 L 73.34375 -40.703125 L 73.15625 -40.703125 L 49.703125 0 L 42.390625 0 L 32.640625 -40.703125 L 32.453125 -40.703125 L 20.0625 0 L 1.78125 0 L 24.953125 -70.71875 Z M 43.046875 -70.71875 "/></g></g></g><g fill="#000000" fill-opacity="1"><g transform="translate(308.02884, 143.162734)"><g><path d="M 41.453125 -72.59375 C 49.015625 -72.59375 56.109375 -70.648438 62.734375 -66.765625 L 53.171875 -52.515625 C 49.859375 -55.640625 46.046875 -57.203125 41.734375 -57.203125 C 39.484375 -57.203125 37.4375 -56.5625 35.59375 -55.28125 C 33.75 -54 32.828125 -52.421875 32.828125 -50.546875 C 32.828125 -49.171875 33.484375 -47.96875 34.796875 -46.9375 C 36.109375 -45.90625 38.515625 -44.890625 42.015625 -43.890625 C 46.765625 -42.453125 50.203125 -41.0625 52.328125 -39.71875 C 54.453125 -38.375 56.109375 -36.71875 57.296875 -34.75 C 58.484375 -32.78125 59.078125 -30.328125 59.078125 -27.390625 C 59.078125 -23.128906 57.984375 -18.625 55.796875 -13.875 C 53.609375 -9.125 50.03125 -5.34375 45.0625 -2.53125 C 40.09375 0.28125 34.203125 1.75 27.390625 1.875 C 18.628906 1.875 10.75 -0.8125 3.75 -6.1875 L 13.96875 -21 C 18.84375 -16.125 23.878906 -13.6875 29.078125 -13.6875 C 31.953125 -13.6875 34.375 -14.4375 36.34375 -15.9375 C 38.3125 -17.4375 39.296875 -19.34375 39.296875 -21.65625 C 39.296875 -24.664062 36.296875 -26.984375 30.296875 -28.609375 C 23.035156 -30.609375 18.34375 -32.75 16.21875 -35.03125 C 14.09375 -37.3125 13.03125 -40.359375 13.03125 -44.171875 C 13.03125 -52.171875 15.765625 -58.90625 21.234375 -64.375 C 26.710938 -69.851562 33.453125 -72.59375 41.453125 -72.59375 Z M 41.453125 -72.59375 "/></g></g></g></svg>