<svg xmlns="http://www.w3.org/2000/svg" xmlns:xlink="http://www.w3.org/1999/xlink" width="500" zoomAndPan="magnify" viewBox="0 0 375 225" height="300" preserveAspectRatio="xMidYMid meet" version="1.0"><defs><g/><clipPath id="4f659c7ff4"><path d="M 7.722656 51.460938 L 367.277344 51.460938 L 367.277344 174.210938 L 7.722656 174.210938 Z M 7.722656 51.460938 " clip-rule="nonzero"/></clipPath><clipPath id="68d0cc59a8"><path d="M 7.726562 51.460938 L 367.25 51.460938 L 367.25 174.203125 L 7.726562 174.203125 Z M 7.726562 51.460938 " clip-rule="nonzero"/></clipPath></defs><g clip-path="url(#4f659c7ff4)"><path fill="#f5f5f5" d="M 7.722656 51.460938 L 367.347656 51.460938 L 367.347656 174.210938 L 7.722656 174.210938 Z M 7.722656 51.460938 " fill-opacity="1" fill-rule="nonzero"/></g><g clip-path="url(#68d0cc59a8)"><path stroke-linecap="butt" transform="matrix(1.5, 0, 0, 1.5, 7.727765, 51.460683)" fill="none" stroke-linejoin="miter" d="M -0.000801959 0.000169629 L 239.681519 0.000169629 L 239.681519 81.828305 L -0.000801959 81.828305 Z M -0.000801959 0.000169629 " stroke="#ffffff" stroke-width="1" stroke-opacity="1" stroke-miterlimit="4"/></g><g fill="#5465ff" fill-opacity="1"><g transform="translate(36.289744, 136.833513)"><g><path d="M 53.03125 -38.96875 C 51.5 -45.320312 47.601562 -48.5 41.34375 -48.5 C 38.0625 -48.5 34.972656 -47.425781 32.078125 -45.28125 C 29.191406 -43.132812 26.898438 -40.296875 25.203125 -36.765625 C 23.503906 -33.242188 22.65625 -29.65625 22.65625 -26 C 22.65625 -21.4375 23.847656 -17.765625 26.234375 -14.984375 C 28.617188 -12.203125 31.828125 -10.8125 35.859375 -10.8125 C 39.515625 -10.8125 42.585938 -11.738281 45.078125 -13.59375 C 47.578125 -15.445312 49.222656 -17.992188 50.015625 -21.234375 L 37.296875 -21.234375 L 39.28125 -33.46875 L 70.21875 -33.46875 C 68.832031 -25.09375 66.507812 -18.476562 63.25 -13.625 C 59.988281 -8.78125 55.851562 -4.96875 50.84375 -2.1875 C 45.84375 0.59375 40.132812 1.984375 33.71875 1.984375 C 25.445312 1.984375 18.804688 -0.34375 13.796875 -5 C 8.785156 -9.664062 6.28125 -15.898438 6.28125 -23.703125 C 6.28125 -30.535156 7.894531 -36.894531 11.125 -42.78125 C 14.363281 -48.664062 18.894531 -53.328125 24.71875 -56.765625 C 30.550781 -60.210938 37.101562 -61.9375 44.375 -61.9375 C 57.039062 -61.9375 65.175781 -56.347656 68.78125 -45.171875 Z M 53.03125 -38.96875 "/></g></g></g><g fill="#5465ff" fill-opacity="1"><g transform="translate(94.799669, 136.833513)"><g><path d="M 29.8125 -59.953125 L 24.890625 -28.3125 C 24.410156 -25.445312 24.171875 -23.113281 24.171875 -21.3125 C 24.171875 -18.289062 24.816406 -16 26.109375 -14.4375 C 27.410156 -12.875 29.65625 -12.09375 32.84375 -12.09375 C 36.707031 -12.09375 39.660156 -13.347656 41.703125 -15.859375 C 43.742188 -18.378906 45.160156 -22.34375 45.953125 -27.75 L 50.96875 -59.953125 L 66.546875 -59.953125 L 61.140625 -25.4375 C 60.085938 -18.445312 58.257812 -13.117188 55.65625 -9.453125 C 53.0625 -5.796875 49.601562 -3.039062 45.28125 -1.1875 C 40.957031 0.664062 36.09375 1.59375 30.6875 1.59375 C 23.375 1.59375 17.753906 0.015625 13.828125 -3.140625 C 9.910156 -6.296875 7.953125 -10.894531 7.953125 -16.9375 C 7.953125 -18.050781 8.003906 -19.269531 8.109375 -20.59375 C 8.210938 -21.914062 10.253906 -35.035156 14.234375 -59.953125 Z M 29.8125 -59.953125 "/></g></g></g><g fill="#5465ff" fill-opacity="1"><g transform="translate(148.221597, 136.833513)"><g><path d="M 37.140625 -59.953125 C 41.960938 -59.953125 45.722656 -58.984375 48.421875 -57.046875 C 51.128906 -55.117188 52.484375 -52.191406 52.484375 -48.265625 C 52.484375 -40.367188 49.539062 -34.988281 43.65625 -32.125 L 43.65625 -31.96875 C 50.382812 -31.0625 53.75 -27.21875 53.75 -20.4375 C 53.75 -14.019531 51.5625 -9.007812 47.1875 -5.40625 C 42.8125 -1.800781 36.914062 0 29.5 0 L 5.09375 0 L 14.546875 -59.953125 Z M 28.3125 -48.03125 L 26.484375 -36.421875 L 28.546875 -36.421875 C 34.585938 -36.421875 37.609375 -38.78125 37.609375 -43.5 C 37.609375 -45.03125 37.023438 -46.164062 35.859375 -46.90625 C 34.691406 -47.65625 32.703125 -48.03125 29.890625 -48.03125 Z M 22.578125 -11.921875 L 26.078125 -11.921875 C 30.484375 -11.921875 33.585938 -12.582031 35.390625 -13.90625 C 37.191406 -15.238281 38.09375 -17.097656 38.09375 -19.484375 C 38.09375 -21.390625 37.398438 -22.753906 36.015625 -23.578125 C 34.640625 -24.398438 32.28125 -24.8125 28.9375 -24.8125 L 24.578125 -24.8125 Z M 22.578125 -11.921875 "/></g></g></g><path stroke-linecap="butt" transform="matrix(1.5, 0, 0, 1.5, 193.644719, 59.335733)" fill="none" stroke-linejoin="miter" d="M 32.445189 13.036595 L 31.059772 21.836075 L 18.713417 21.836075 L 17.653521 28.513158 L 29.364459 28.513158 L 27.992063 37.315242 L 16.268105 37.315242 L 15.156125 44.200659 L 27.515501 44.200659 L 26.130084 53.000138 L 3.3905 53.000138 L 9.705604 13.036595 Z M 47.861856 13.036595 L 52.637898 34.390763 L 64.557169 13.036595 L 74.895711 13.036595 L 74.637899 53.000138 L 64.244669 53.000138 L 64.984252 29.989721 L 64.880086 29.989721 L 51.627481 53.000138 L 47.486856 53.000138 L 41.973835 29.989721 L 41.869668 29.989721 L 34.880085 53.000138 L 24.538938 53.000138 L 37.637897 13.036595 Z M 93.434774 11.974095 C 97.71342 11.974095 101.726441 13.070449 105.471233 15.260554 L 100.062379 23.310033 C 98.189983 21.541804 96.036337 20.658991 93.604045 20.658991 C 92.325399 20.658991 91.166545 21.02097 90.122274 21.744929 C 89.085816 22.468887 88.570191 23.362116 88.570191 24.424616 C 88.570191 25.200658 88.939983 25.88295 89.68217 26.468887 C 90.424358 27.054825 91.783733 27.630346 93.757691 28.190242 C 96.442587 29.000137 98.382691 29.786596 99.583212 30.547013 C 100.791546 31.304825 101.726441 32.242325 102.390504 33.354304 C 103.064983 34.466284 103.400921 35.856909 103.400921 37.520971 C 103.400921 39.919409 102.783733 42.466284 101.549358 45.156388 C 100.314983 47.841284 98.291546 49.979305 95.479045 51.575659 C 92.666545 53.164201 89.335816 53.992326 85.489462 54.060034 C 80.544149 54.060034 76.093628 52.541805 72.13269 49.505347 L 77.903524 41.11993 C 80.666545 43.880346 83.512899 45.260555 86.445191 45.260555 C 88.067587 45.260555 89.434774 44.83868 90.549358 43.992326 C 91.661337 43.138159 92.218629 42.060034 92.218629 40.75795 C 92.218629 39.05743 90.523316 37.750138 87.132691 36.836075 C 83.033732 35.705867 80.380086 34.497534 79.174357 33.211075 C 77.973836 31.916804 77.374878 30.192846 77.374878 28.033992 C 77.374878 23.513158 78.919149 19.70847 82.007691 16.619929 C 85.104045 13.523574 88.913941 11.974095 93.434774 11.974095 Z M 93.434774 11.974095 " stroke="#f5f5f5" stroke-width="5.367546" stroke-opacity="1" stroke-miterlimit="4"/><g fill="#000000" fill-opacity="1"><g transform="translate(193.644719, 138.83573)"><g><path d="M 48.65625 -59.953125 L 46.59375 -46.75 L 28.0625 -46.75 L 26.484375 -36.734375 L 44.046875 -36.734375 L 41.984375 -23.53125 L 24.40625 -23.53125 L 22.734375 -13.203125 L 41.265625 -13.203125 L 39.203125 0 L 5.09375 0 L 14.546875 -59.953125 Z M 48.65625 -59.953125 "/></g></g></g><g fill="#000000" fill-opacity="1"><g transform="translate(228.940651, 138.83573)"><g><path d="M 36.5 -59.953125 L 43.65625 -27.90625 L 61.546875 -59.953125 L 77.046875 -59.953125 L 76.65625 0 L 61.0625 0 L 62.1875 -34.515625 L 62.015625 -34.515625 L 42.140625 0 L 35.9375 0 L 27.671875 -34.515625 L 27.515625 -34.515625 L 17.015625 0 L 1.515625 0 L 21.15625 -59.953125 Z M 36.5 -59.953125 "/></g></g></g><g fill="#000000" fill-opacity="1"><g transform="translate(298.660058, 138.83573)"><g><path d="M 35.140625 -61.546875 C 41.554688 -61.546875 47.578125 -59.898438 53.203125 -56.609375 L 45.078125 -44.53125 C 42.273438 -47.175781 39.046875 -48.5 35.390625 -48.5 C 33.472656 -48.5 31.734375 -47.957031 30.171875 -46.875 C 28.609375 -45.789062 27.828125 -44.453125 27.828125 -42.859375 C 27.828125 -41.691406 28.382812 -40.671875 29.5 -39.796875 C 30.613281 -38.921875 32.65625 -38.0625 35.625 -37.21875 C 39.65625 -36 42.570312 -34.816406 44.375 -33.671875 C 46.175781 -32.535156 47.578125 -31.128906 48.578125 -29.453125 C 49.585938 -27.785156 50.09375 -25.707031 50.09375 -23.21875 C 50.09375 -19.613281 49.164062 -15.796875 47.3125 -11.765625 C 45.457031 -7.734375 42.421875 -4.523438 38.203125 -2.140625 C 33.992188 0.242188 29 1.488281 23.21875 1.59375 C 15.800781 1.59375 9.125 -0.6875 3.1875 -5.25 L 11.84375 -17.8125 C 15.976562 -13.675781 20.25 -11.609375 24.65625 -11.609375 C 27.09375 -11.609375 29.144531 -12.242188 30.8125 -13.515625 C 32.476562 -14.785156 33.3125 -16.40625 33.3125 -18.375 C 33.3125 -20.914062 30.769531 -22.875 25.6875 -24.25 C 19.53125 -25.945312 15.550781 -27.757812 13.75 -29.6875 C 11.945312 -31.625 11.046875 -34.210938 11.046875 -37.453125 C 11.046875 -44.234375 13.363281 -49.941406 18 -54.578125 C 22.644531 -59.222656 28.359375 -61.546875 35.140625 -61.546875 Z M 35.140625 -61.546875 "/></g></g></g></svg>